# xmcd
#
# Track frame offsets:
#	150
#	16106
#	27868
#	41538
#	53969
#	66239
#	88122
#	97975
#
# Disc length: 1442 seconds
#
# Revision: 4
# Processed by: cddbd v1.5.2PL0 Copyright (c) Steve Scherf et al.
# Submitted via: audiograbber 1.82.02
#
DISCID=5c05a008
DTITLE=Leonard Roberts - Wutwahdat
DYEAR=2001
DGENRE=Folk
TTITLE0=Etowah Tennesseee
TTITLE1=Sumtymes
TTITLE2=Jesus I Sure Need You Now
TTITLE3=Poison Oak
TTITLE4=Isn't She Lucky
TTITLE5=Big Rig (On My Tail)
TTITLE6=Would You Still Love Me
TTITLE7=Bill and Bill
EXTD=
EXTT0=
EXTT1=
EXTT2=
EXTT3=
EXTT4=
EXTT5=
EXTT6=
EXTT7=
PLAYORDER=
